<?xml version="1.0" encoding="UTF-8" standalone="no"?>
<svg
   xmlns="http://www.w3.org/2000/svg"
   shape-rendering="geometricPrecision"
   text-rendering="geometricPrecision"
   image-rendering="optimizeQuality"
   fill-rule="evenodd"
   clip-rule="evenodd"
   viewBox="0 0 512 412.261"
   version="1.1"
   id="svg885">
  <g
     transform="matrix(-0.81915204,0.57357644,0.57357644,0.81915204,282.51612,-117.19908)">
    <path
       fill="#ffc928"
       d="m 413.246,253.323 9.447,-21.487 0.004,-0.03 C 424.952,114.505 295.43,136.321 283.052,101.63 270.925,173.969 409.446,251.874 413.246,253.323 Z"
       id="path873" />
    <path
       fill="#fff073"
       d="m 413.246,253.323 c 3.15,-7.162 6.296,-14.324 9.447,-21.487 0,-0.009 0.004,-0.022 0.004,-0.03 0.178,-9.167 -0.454,-17.485 -1.765,-25.045 -24.05,-9.712 -49.45,-11.993 -53.877,-24.396 -3.514,20.964 10.702,42.585 29.009,60.935 9.811,6.133 16.394,9.725 17.182,10.023 z"
       id="path875" />
    <path
       fill="#f77d02"
       d="m 213.055,0.003 c -8.749,114.508 27.992,224.238 130.733,244.86 25.643,5.147 46.335,-0.621 69.459,8.46 -3.802,-1.446 -142.323,-79.35 -130.195,-151.693 12.375,34.696 141.92,12.871 139.643,130.206 C 454.618,36.959 235.033,61.606 213.058,0 Z"
       id="path877" />
    <path
       fill="#3f3825"
       d="m 464.98,221.562 c -11.184,2.4 -22.63,7.909 -32.82,14.871 -15.765,10.772 -29.321,20.224 -23.777,40.71 4.023,14.865 14.927,21.272 28.127,23.884 11.505,2.278 25.271,2.602 37.96,0.053 23.595,-4.741 39.727,-17.933 37.286,-43.965 -1.978,-21.092 -17.842,-41.763 -46.776,-35.553 z"
       id="path879" />
    <path
       fill="#fae0bc"
       d="m 0.465,387.453 4.227,14.312 c 2.28,7.72 10.471,12.176 18.202,9.901 l 397.278,-117.15 c -7.276,-12.117 -7.43,-26.985 -8.128,-41.036 L 8.213,373.228 c -6.024,1.789 -9.531,8.19 -7.748,14.225 z"
       id="path881" />
    <path
       fill="#d9a550"
       d="m 4.713,401.836 c 2.31,7.681 10.479,12.097 18.182,9.83 L 420.207,294.508 c -2.315,-3.859 -3.821,-7.949 -5.051,-12.112 z"
       id="path883" />
  </g>
</svg>
